<?xml version="1.0" encoding="utf-8"?>
<!-- Generator: Adobe Illustrator 19.1.0, SVG Export Plug-In . SVG Version: 6.00 Build 0)  -->
<svg version="1.1" id="Layer_1" xmlns="http://www.w3.org/2000/svg" xmlns:xlink="http://www.w3.org/1999/xlink" x="0px" y="0px"
	 viewBox="0 0 50 50" style="enable-background:new 0 0 50 50;" xml:space="preserve">
<style type="text/css">
	.st0{fill:#043149;}
	.st1{fill:none;stroke:#043149;stroke-width:2;stroke-miterlimit:10;}
	.st2{fill:#FFEFC1;}
	.st3{clip-path:url(#SVGID_2_);fill:#E57777;}
	.st4{fill:none;stroke:#83949B;stroke-width:6;stroke-miterlimit:10;}
	.st5{fill:#D7EFF2;}
	.st6{fill:#F7D772;}
	.st7{clip-path:url(#SVGID_4_);fill:#E57777;}
</style>
<circle class="st1" cx="25" cy="25" r="24"/>
<g>
	<g>
		<path d="M3.9,11c3.2,3.2,6.3,6.3,9.5,9.5c0.4,0.4,1.2,0.4,1.6,0c3.1-3.1,6.2-6.2,9.4-9.4c1-1-0.6-2.6-1.6-1.6
			c-3.1,3.1-6.2,6.2-9.4,9.4c0.5,0,1.1,0,1.6,0c-3.2-3.2-6.3-6.3-9.5-9.5C4.4,8.4,2.8,10,3.9,11L3.9,11z"/>
	</g>
</g>
<g>
	<g>
		<path d="M3.9,23.8c3.2,3.2,6.3,6.3,9.5,9.5c0.4,0.4,1.2,0.4,1.6,0c3.1-3.1,6.2-6.2,9.4-9.4c1-1-0.6-2.6-1.6-1.6
			c-3.1,3.1-6.2,6.2-9.4,9.4c0.5,0,1.1,0,1.6,0c-3.2-3.2-6.3-6.3-9.5-9.5C4.4,21.2,2.8,22.8,3.9,23.8L3.9,23.8z"/>
	</g>
</g>
<g>
	<g>
		<path d="M28.1,20.5c3.2-3.2,6.3-6.3,9.5-9.5c-0.5,0-1.1,0-1.6,0c3.1,3.1,6.2,6.2,9.4,9.4c1,1,2.6-0.6,1.6-1.6
			c-3.1-3.1-6.2-6.2-9.4-9.4C37.1,9,36.4,9,36,9.4c-3.2,3.2-6.3,6.3-9.5,9.5C25.5,19.9,27.1,21.5,28.1,20.5L28.1,20.5z"/>
	</g>
</g>
<g>
	<g>
		<path d="M28.1,33.3c3.2-3.2,6.3-6.3,9.5-9.5c-0.5,0-1.1,0-1.6,0c3.1,3.1,6.2,6.2,9.4,9.4c1,1,2.6-0.6,1.6-1.6
			c-3.1-3.1-6.2-6.2-9.4-9.4c-0.4-0.4-1.2-0.4-1.6,0c-3.2,3.2-6.3,6.3-9.5,9.5C25.5,32.7,27.1,34.3,28.1,33.3L28.1,33.3z"/>
	</g>
</g>
<g>
	<g>
		<path d="M3.9,17.7c3.2,3.2,6.3,6.3,9.5,9.5c0.4,0.4,1.2,0.4,1.6,0c3.1-3.1,6.2-6.2,9.4-9.4c1-1-0.6-2.6-1.6-1.6
			c-3.1,3.1-6.2,6.2-9.4,9.4c0.5,0,1.1,0,1.6,0c-3.2-3.2-6.3-6.3-9.5-9.5C4.4,15.1,2.8,16.7,3.9,17.7L3.9,17.7z"/>
	</g>
</g>
<g>
	<g>
		<path d="M3.9,30.3c3.2,3.2,6.3,6.3,9.5,9.5c0.4,0.4,1.2,0.4,1.6,0c3.1-3.1,6.2-6.2,9.4-9.4c1-1-0.6-2.6-1.6-1.6
			c-3.1,3.1-6.2,6.2-9.4,9.4c0.5,0,1.1,0,1.6,0c-3.2-3.2-6.3-6.3-9.5-9.5C4.4,27.7,2.8,29.3,3.9,30.3L3.9,30.3z"/>
	</g>
</g>
<g>
	<g>
		<path d="M28.1,27.2c3.2-3.2,6.3-6.3,9.5-9.5c-0.5,0-1.1,0-1.6,0c3.1,3.1,6.2,6.2,9.4,9.4c1,1,2.6-0.6,1.6-1.6
			c-3.1-3.1-6.2-6.2-9.4-9.4c-0.4-0.4-1.2-0.4-1.6,0c-3.2,3.2-6.3,6.3-9.5,9.5C25.5,26.6,27.1,28.2,28.1,27.2L28.1,27.2z"/>
	</g>
</g>
<g>
	<g>
		<path d="M28.1,39.8c3.2-3.2,6.3-6.3,9.5-9.5c-0.5,0-1.1,0-1.6,0c3.1,3.1,6.2,6.2,9.4,9.4c1,1,2.6-0.6,1.6-1.6
			c-3.1-3.1-6.2-6.2-9.4-9.4c-0.4-0.4-1.2-0.4-1.6,0c-3.2,3.2-6.3,6.3-9.5,9.5C25.5,39.2,27.1,40.8,28.1,39.8L28.1,39.8z"/>
	</g>
</g>
</svg>
