<?xml version="1.0" encoding="utf-8"?>
<!-- Generator: Adobe Illustrator 19.1.0, SVG Export Plug-In . SVG Version: 6.00 Build 0)  -->
<svg version="1.1" id="Layer_1" xmlns="http://www.w3.org/2000/svg" xmlns:xlink="http://www.w3.org/1999/xlink" x="0px" y="0px"
	 viewBox="0 0 3672.1 1139" style="enable-background:new 0 0 3672.1 1139;" xml:space="preserve">
<style type="text/css">
	.st0{fill:none;}
	.st1{fill:#043149;}
	.st2{font-family:'Raleway-ExtraLight';}
	.st3{font-size:500px;}
	.st4{fill:none;stroke:#043149;stroke-width:0.75;stroke-miterlimit:10;}
	.st5{fill:#FFEFC1;}
	.st6{clip-path:url(#SVGID_2_);fill:#E57777;}
	.st7{fill:none;stroke:#83949B;stroke-width:6;stroke-miterlimit:10;}
	.st8{fill:#D7EFF2;}
	.st9{fill:#F7D772;}
	.st10{clip-path:url(#SVGID_4_);fill:#E57777;}
</style>
<g>
	<g>
		<g>
			<path d="M10.7,89c8.7,8.7,17.3,17.3,26,26c20.7,20.7,41.3,41.3,62,62c25,25,50,50,75,75c21.7,21.7,43.4,43.4,65.1,65.1
				c10.5,10.5,20.9,21.2,31.6,31.6c0.2,0.2,0.3,0.3,0.5,0.5c14.3,14.3,38.7,14.4,53,0c8.6-8.6,17.1-17.1,25.7-25.7
				c20.4-20.4,40.9-40.9,61.3-61.3c24.7-24.7,49.5-49.5,74.2-74.2c21.5-21.5,43-43,64.5-64.5c10.4-10.4,21-20.7,31.3-31.3
				c0.2-0.2,0.3-0.3,0.5-0.5c13.9-13.9,14.9-39.3,0-53c-15-13.7-38.2-14.8-53,0c-8.6,8.6-17.1,17.1-25.7,25.7
				c-20.4,20.4-40.9,40.9-61.3,61.3c-24.7,24.7-49.5,49.5-74.2,74.2c-21.5,21.5-43,43-64.5,64.5c-10.4,10.4-21.1,20.6-31.3,31.3
				c-0.2,0.2-0.3,0.3-0.5,0.5c17.7,0,35.4,0,53,0c-8.7-8.7-17.3-17.3-26-26c-20.7-20.7-41.3-41.3-62-62c-25-25-50-50-75-75
				c-21.7-21.7-43.4-43.4-65.1-65.1C85.3,57.5,74.9,46.8,64.2,36.4c-0.2-0.2-0.3-0.3-0.5-0.5c-13.9-13.9-39.3-14.9-53,0
				C-3,51-4.1,74.2,10.7,89L10.7,89z"/>
		</g>
	</g>
	<g>
		<g>
			<path d="M10.7,441.3c8.7,8.7,17.3,17.3,26,26c20.7,20.7,41.3,41.3,62,62c25,25,50,50,75,75c21.7,21.7,43.4,43.4,65.1,65.1
				c10.5,10.5,20.9,21.2,31.6,31.6c0.2,0.2,0.3,0.3,0.5,0.5c14.3,14.3,38.7,14.4,53,0c8.6-8.6,17.1-17.1,25.7-25.7
				c20.4-20.4,40.9-40.9,61.3-61.3c24.7-24.7,49.5-49.5,74.2-74.2c21.5-21.5,43-43,64.5-64.5c10.4-10.4,21-20.7,31.3-31.3
				c0.2-0.2,0.3-0.3,0.5-0.5c13.9-13.9,14.9-39.3,0-53c-15-13.7-38.2-14.8-53,0c-8.6,8.6-17.1,17.1-25.7,25.7
				c-20.4,20.4-40.9,40.9-61.3,61.3c-24.7,24.7-49.5,49.5-74.2,74.2c-21.5,21.5-43,43-64.5,64.5c-10.4,10.4-21.1,20.6-31.3,31.3
				c-0.2,0.2-0.3,0.3-0.5,0.5c17.7,0,35.4,0,53,0c-8.7-8.7-17.3-17.3-26-26c-20.7-20.7-41.3-41.3-62-62c-25-25-50-50-75-75
				c-21.7-21.7-43.4-43.4-65.1-65.1c-10.5-10.5-20.9-21.2-31.6-31.6c-0.2-0.2-0.3-0.3-0.5-0.5c-13.9-13.9-39.3-14.9-53,0
				C-3,403.2-4.1,426.4,10.7,441.3L10.7,441.3z"/>
		</g>
	</g>
	<g>
		<g>
			<path d="M10.7,778.3c8.7,8.7,17.3,17.3,26,26c20.7,20.7,41.3,41.3,62,62c25,25,50,50,75,75c21.7,21.7,43.4,43.4,65.1,65.1
				c10.5,10.5,20.9,21.2,31.6,31.6c0.2,0.2,0.3,0.3,0.5,0.5c14.3,14.3,38.7,14.4,53,0c8.6-8.6,17.1-17.1,25.7-25.7
				c20.4-20.4,40.9-40.9,61.3-61.3c24.7-24.7,49.5-49.5,74.2-74.2c21.5-21.5,43-43,64.5-64.5c10.4-10.4,21-20.7,31.3-31.3
				c0.2-0.2,0.3-0.3,0.5-0.5c13.9-13.9,14.9-39.3,0-53c-15-13.7-38.2-14.8-53,0c-8.6,8.6-17.1,17.1-25.7,25.7
				c-20.4,20.4-40.9,40.9-61.3,61.3c-24.7,24.7-49.5,49.5-74.2,74.2c-21.5,21.5-43,43-64.5,64.5c-10.4,10.4-21.1,20.6-31.3,31.3
				c-0.2,0.2-0.3,0.3-0.5,0.5c17.7,0,35.4,0,53,0c-8.7-8.7-17.3-17.3-26-26c-20.7-20.7-41.3-41.3-62-62c-25-25-50-50-75-75
				c-21.7-21.7-43.4-43.4-65.1-65.1c-10.5-10.5-20.9-21.2-31.6-31.6c-0.2-0.2-0.3-0.3-0.5-0.5c-13.9-13.9-39.3-14.9-53,0
				C-3,740.2-4.1,763.5,10.7,778.3L10.7,778.3z"/>
		</g>
	</g>
	<g>
		<g>
			<path d="M686,349.2c8.7-8.7,17.3-17.3,26-26c20.7-20.7,41.3-41.3,62-62c25-25,50-50,75-75c21.7-21.7,43.4-43.4,65.1-65.1
				c10.5-10.5,21.3-20.8,31.6-31.6c0.1-0.2,0.3-0.3,0.5-0.5c-17.7,0-35.4,0-53,0c8.6,8.6,17.1,17.1,25.7,25.7
				c20.4,20.4,40.9,40.9,61.3,61.3c24.7,24.7,49.5,49.5,74.2,74.2c21.5,21.5,43,43,64.5,64.5c10.4,10.4,20.7,21,31.3,31.3
				c0.2,0.2,0.3,0.3,0.5,0.5c13.9,13.9,39.3,14.9,53,0c13.7-15,14.8-38.2,0-53c-8.6-8.6-17.1-17.1-25.7-25.7
				c-20.4-20.4-40.9-40.9-61.3-61.3c-24.7-24.7-49.5-49.5-74.2-74.2c-21.5-21.5-43-43-64.5-64.5c-10.4-10.4-20.7-21-31.3-31.3
				c-0.2-0.2-0.3-0.3-0.5-0.5c-14.3-14.3-38.7-14.4-53,0c-8.7,8.7-17.3,17.3-26,26c-20.7,20.7-41.3,41.3-62,62c-25,25-50,50-75,75
				c-21.7,21.7-43.4,43.4-65.1,65.1c-10.5,10.5-21.2,20.9-31.6,31.6c-0.2,0.2-0.3,0.3-0.5,0.5c-13.9,13.9-14.9,39.3,0,53
				C647.9,362.9,671.1,364,686,349.2L686,349.2z"/>
		</g>
	</g>
	<g>
		<g>
			<path d="M686,701.4c8.7-8.7,17.3-17.3,26-26c20.7-20.7,41.3-41.3,62-62c25-25,50-50,75-75c21.7-21.7,43.4-43.4,65.1-65.1
				c10.5-10.5,21.3-20.8,31.6-31.6c0.1-0.2,0.3-0.3,0.5-0.5c-17.7,0-35.4,0-53,0c8.6,8.6,17.1,17.1,25.7,25.7
				c20.4,20.4,40.9,40.9,61.3,61.3c24.7,24.7,49.5,49.5,74.2,74.2c21.5,21.5,43,43,64.5,64.5c10.4,10.4,20.7,21,31.3,31.3
				c0.2,0.2,0.3,0.3,0.5,0.5c13.9,13.9,39.3,14.9,53,0c13.7-15,14.8-38.2,0-53c-8.6-8.6-17.1-17.1-25.7-25.7
				c-20.4-20.4-40.9-40.9-61.3-61.3c-24.7-24.7-49.5-49.5-74.2-74.2c-21.5-21.5-43-43-64.5-64.5c-10.4-10.4-20.7-21-31.3-31.3
				c-0.2-0.2-0.3-0.3-0.5-0.5c-14.3-14.3-38.7-14.4-53,0c-8.7,8.7-17.3,17.3-26,26c-20.7,20.7-41.3,41.3-62,62c-25,25-50,50-75,75
				c-21.7,21.7-43.4,43.4-65.1,65.1c-10.5,10.5-21.2,20.9-31.6,31.6c-0.2,0.2-0.3,0.3-0.5,0.5c-13.9,13.9-14.9,39.3,0,53
				C647.9,715.2,671.1,716.2,686,701.4L686,701.4z"/>
		</g>
	</g>
	<g>
		<g>
			<path d="M686,1038.4c8.7-8.7,17.3-17.3,26-26c20.7-20.7,41.3-41.3,62-62c25-25,50-50,75-75c21.7-21.7,43.4-43.4,65.1-65.1
				c10.5-10.5,21.3-20.8,31.6-31.6c0.1-0.2,0.3-0.3,0.5-0.5c-17.7,0-35.4,0-53,0c8.6,8.6,17.1,17.1,25.7,25.7
				c20.4,20.4,40.9,40.9,61.3,61.3c24.7,24.7,49.5,49.5,74.2,74.2c21.5,21.5,43,43,64.5,64.5c10.4,10.4,20.7,21,31.3,31.3
				c0.2,0.2,0.3,0.3,0.5,0.5c13.9,13.9,39.3,14.9,53,0c13.7-15,14.8-38.2,0-53c-8.6-8.6-17.1-17.1-25.7-25.7
				c-20.4-20.4-40.9-40.9-61.3-61.3c-24.7-24.7-49.5-49.5-74.2-74.2c-21.5-21.5-43-43-64.5-64.5c-10.4-10.4-20.7-21-31.3-31.3
				c-0.2-0.2-0.3-0.3-0.5-0.5c-14.3-14.3-38.7-14.4-53,0c-8.7,8.7-17.3,17.3-26,26c-20.7,20.7-41.3,41.3-62,62c-25,25-50,50-75,75
				c-21.7,21.7-43.4,43.4-65.1,65.1c-10.5,10.5-21.2,20.9-31.6,31.6c-0.2,0.2-0.3,0.3-0.5,0.5c-13.9,13.9-14.9,39.3,0,53
				C647.9,1052.2,671.1,1053.2,686,1038.4L686,1038.4z"/>
		</g>
	</g>
	<g>
		<g>
			<path d="M31.9,251.4c8.7,8.7,17.3,17.3,26,26c20.7,20.7,41.3,41.3,62,62c25,25,50,50,75,75c21.7,21.7,43.4,43.4,65.1,65.1
				c10.5,10.5,20.6,21.5,31.6,31.6c0.2,0.1,0.3,0.3,0.5,0.5c2.9,2.9,7.7,2.9,10.6,0c8.6-8.6,17.1-17.1,25.7-25.7
				c20.4-20.4,40.9-40.9,61.3-61.3c24.7-24.7,49.5-49.5,74.2-74.2c21.5-21.5,43-43,64.5-64.5c10.4-10.4,21.3-20.5,31.3-31.3
				c0.1-0.2,0.3-0.3,0.5-0.5c6.8-6.8-3.8-17.4-10.6-10.6c-8.6,8.6-17.1,17.1-25.7,25.7c-20.4,20.4-40.9,40.9-61.3,61.3
				c-24.7,24.7-49.5,49.5-74.2,74.2c-21.5,21.5-43,43-64.5,64.5c-7.1,7.1-14.2,14.2-21.2,21.2c-3.3,3.3-7.2,6.4-10,10
				c-0.1,0.2-0.3,0.3-0.5,0.5c3.5,0,7.1,0,10.6,0c-8.7-8.7-17.3-17.3-26-26c-20.7-20.7-41.3-41.3-62-62c-25-25-50-50-75-75
				c-21.7-21.7-43.4-43.4-65.1-65.1c-10.5-10.5-20.6-21.5-31.6-31.6c-0.2-0.1-0.3-0.3-0.5-0.5C35.7,234,25.1,244.6,31.9,251.4
				L31.9,251.4z"/>
		</g>
	</g>
	<g>
		<g>
			<path d="M31.9,598.4c8.7,8.7,17.3,17.3,26,26c20.7,20.7,41.3,41.3,62,62c25,25,50,50,75,75c21.7,21.7,43.4,43.4,65.1,65.1
				c10.5,10.5,20.6,21.5,31.6,31.6c0.2,0.1,0.3,0.3,0.5,0.5c2.9,2.9,7.7,2.9,10.6,0c8.6-8.6,17.1-17.1,25.7-25.7
				c20.4-20.4,40.9-40.9,61.3-61.3c24.7-24.7,49.5-49.5,74.2-74.2c21.5-21.5,43-43,64.5-64.5c10.4-10.4,21.3-20.5,31.3-31.3
				c0.1-0.2,0.3-0.3,0.5-0.5c6.8-6.8-3.8-17.4-10.6-10.6c-8.6,8.6-17.1,17.1-25.7,25.7c-20.4,20.4-40.9,40.9-61.3,61.3
				c-24.7,24.7-49.5,49.5-74.2,74.2c-21.5,21.5-43,43-64.5,64.5c-7.1,7.1-14.2,14.2-21.2,21.2c-3.3,3.3-7.2,6.4-10,10
				c-0.1,0.2-0.3,0.3-0.5,0.5c3.5,0,7.1,0,10.6,0c-8.7-8.7-17.3-17.3-26-26c-20.7-20.7-41.3-41.3-62-62c-25-25-50-50-75-75
				c-21.7-21.7-43.4-43.4-65.1-65.1c-10.5-10.5-20.6-21.5-31.6-31.6c-0.2-0.1-0.3-0.3-0.5-0.5C35.7,580.9,25.1,591.5,31.9,598.4
				L31.9,598.4z"/>
		</g>
	</g>
	<g>
		<g>
			<path d="M664.8,511.6c8.7-8.7,17.3-17.3,26-26c20.7-20.7,41.3-41.3,62-62c25-25,50-50,75-75c21.7-21.7,43.4-43.4,65.1-65.1
				c7.1-7.1,14.2-14.2,21.3-21.3c3.3-3.3,7.4-6.5,10.3-10.3c0.1-0.2,0.3-0.3,0.5-0.5c-3.5,0-7.1,0-10.6,0
				c8.6,8.6,17.1,17.1,25.7,25.7c20.4,20.4,40.9,40.9,61.3,61.3c24.7,24.7,49.5,49.5,74.2,74.2c21.5,21.5,43,43,64.5,64.5
				c10.4,10.4,20.5,21.3,31.3,31.3c0.2,0.1,0.3,0.3,0.5,0.5c6.8,6.8,17.4-3.8,10.6-10.6c-8.6-8.6-17.1-17.1-25.7-25.7
				c-20.4-20.4-40.9-40.9-61.3-61.3c-24.7-24.7-49.5-49.5-74.2-74.2c-21.5-21.5-43-43-64.5-64.5c-10.4-10.4-20.5-21.3-31.3-31.3
				c-0.2-0.1-0.3-0.3-0.5-0.5c-2.9-2.9-7.7-2.9-10.6,0c-8.7,8.7-17.3,17.3-26,26c-20.7,20.7-41.3,41.3-62,62c-25,25-50,50-75,75
				c-21.7,21.7-43.4,43.4-65.1,65.1c-10.5,10.5-21.5,20.6-31.6,31.6c-0.1,0.2-0.3,0.3-0.5,0.5C647.3,507.8,657.9,518.4,664.8,511.6
				L664.8,511.6z"/>
		</g>
	</g>
	<g>
		<g>
			<path d="M664.8,858.5c8.7-8.7,17.3-17.3,26-26c20.7-20.7,41.3-41.3,62-62c25-25,50-50,75-75c21.7-21.7,43.4-43.4,65.1-65.1
				c7.1-7.1,14.2-14.2,21.3-21.3c3.3-3.3,7.4-6.5,10.3-10.3c0.1-0.2,0.3-0.3,0.5-0.5c-3.5,0-7.1,0-10.6,0
				c8.6,8.6,17.1,17.1,25.7,25.7c20.4,20.4,40.9,40.9,61.3,61.3c24.7,24.7,49.5,49.5,74.2,74.2c21.5,21.5,43,43,64.5,64.5
				c10.4,10.4,20.5,21.3,31.3,31.3c0.2,0.1,0.3,0.3,0.5,0.5c6.8,6.8,17.4-3.8,10.6-10.6c-8.6-8.6-17.1-17.1-25.7-25.7
				c-20.4-20.4-40.9-40.9-61.3-61.3c-24.7-24.7-49.5-49.5-74.2-74.2c-21.5-21.5-43-43-64.5-64.5c-10.4-10.4-20.5-21.3-31.3-31.3
				c-0.2-0.1-0.3-0.3-0.5-0.5c-2.9-2.9-7.7-2.9-10.6,0c-8.7,8.7-17.3,17.3-26,26c-20.7,20.7-41.3,41.3-62,62c-25,25-50,50-75,75
				c-21.7,21.7-43.4,43.4-65.1,65.1c-10.5,10.5-21.5,20.6-31.6,31.6c-0.1,0.2-0.3,0.3-0.5,0.5C647.3,854.7,657.9,865.3,664.8,858.5
				L664.8,858.5z"/>
		</g>
	</g>
</g>
<rect x="1279.2" y="62.5" class="st0" width="2392.9" height="1073"/>
<text transform="matrix(1 0 0 1 1279.2006 427.498)"><tspan x="0" y="0" class="st1 st2 st3">ELISE</tspan><tspan x="0" y="600" class="st1 st2 st3">WEILAND</tspan></text>
</svg>
