<?xml version="1.0" encoding="utf-8"?>
<!-- Generator: Adobe Illustrator 19.1.0, SVG Export Plug-In . SVG Version: 6.00 Build 0)  -->
<svg version="1.1" id="Layer_1" xmlns="http://www.w3.org/2000/svg" xmlns:xlink="http://www.w3.org/1999/xlink" x="0px" y="0px"
	 viewBox="0 0 4733.9 727" style="enable-background:new 0 0 4733.9 727;" xml:space="preserve">
<style type="text/css">
	.st0{fill:#043149;}
	.st1{fill:none;stroke:#043149;stroke-width:40;stroke-miterlimit:10;}
	.st2{fill:none;}
</style>
<g>
	<g>
		<g>
			<path d="M-3787.9-185.1c8.7,8.7,17.3,17.3,26,26c20.7,20.7,41.3,41.3,62,62c25,25,50,50,75,75c21.7,21.7,43.4,43.4,65.1,65.1
				c10.5,10.5,20.9,21.2,31.6,31.6c0.2,0.2,0.3,0.3,0.5,0.5c14.3,14.3,38.7,14.4,53,0c8.6-8.6,17.1-17.1,25.7-25.7
				c20.4-20.4,40.9-40.9,61.3-61.3c24.7-24.7,49.5-49.5,74.2-74.2c21.5-21.5,43-43,64.5-64.5c10.4-10.4,21-20.7,31.3-31.3
				c0.2-0.2,0.3-0.3,0.5-0.5c13.9-13.9,14.9-39.3,0-53c-15-13.7-38.2-14.8-53,0c-8.6,8.6-17.1,17.1-25.7,25.7
				c-20.4,20.4-40.9,40.9-61.3,61.3c-24.7,24.7-49.5,49.5-74.2,74.2c-21.5,21.5-43,43-64.5,64.5c-10.4,10.4-21.1,20.6-31.3,31.3
				c-0.2,0.2-0.3,0.3-0.5,0.5c17.7,0,35.4,0,53,0c-8.7-8.7-17.3-17.3-26-26c-20.7-20.7-41.3-41.3-62-62c-25-25-50-50-75-75
				c-21.7-21.7-43.4-43.4-65.1-65.1c-10.5-10.5-20.9-21.2-31.6-31.6c-0.2-0.2-0.3-0.3-0.5-0.5c-13.9-13.9-39.3-14.9-53,0
				C-3801.7-223.2-3802.7-200-3787.9-185.1L-3787.9-185.1z"/>
		</g>
	</g>
	<g>
		<g>
			<path d="M-3787.9,167.1c8.7,8.7,17.3,17.3,26,26c20.7,20.7,41.3,41.3,62,62c25,25,50,50,75,75c21.7,21.7,43.4,43.4,65.1,65.1
				c10.5,10.5,20.9,21.2,31.6,31.6c0.2,0.2,0.3,0.3,0.5,0.5c14.3,14.3,38.7,14.4,53,0c8.6-8.6,17.1-17.1,25.7-25.7
				c20.4-20.4,40.9-40.9,61.3-61.3c24.7-24.7,49.5-49.5,74.2-74.2c21.5-21.5,43-43,64.5-64.5c10.4-10.4,21-20.7,31.3-31.3
				c0.2-0.2,0.3-0.3,0.5-0.5c13.9-13.9,14.9-39.3,0-53c-15-13.7-38.2-14.8-53,0c-8.6,8.6-17.1,17.1-25.7,25.7
				c-20.4,20.4-40.9,40.9-61.3,61.3c-24.7,24.7-49.5,49.5-74.2,74.2c-21.5,21.5-43,43-64.5,64.5c-10.4,10.4-21.1,20.6-31.3,31.3
				c-0.2,0.2-0.3,0.3-0.5,0.5c17.7,0,35.4,0,53,0c-8.7-8.7-17.3-17.3-26-26c-20.7-20.7-41.3-41.3-62-62c-25-25-50-50-75-75
				c-21.7-21.7-43.4-43.4-65.1-65.1c-10.5-10.5-20.9-21.2-31.6-31.6c-0.2-0.2-0.3-0.3-0.5-0.5c-13.9-13.9-39.3-14.9-53,0
				C-3801.7,129-3802.7,152.3-3787.9,167.1L-3787.9,167.1z"/>
		</g>
	</g>
	<g>
		<g>
			<path d="M-3787.9,504.1c8.7,8.7,17.3,17.3,26,26c20.7,20.7,41.3,41.3,62,62c25,25,50,50,75,75c21.7,21.7,43.4,43.4,65.1,65.1
				c10.5,10.5,20.9,21.2,31.6,31.6c0.2,0.2,0.3,0.3,0.5,0.5c14.3,14.3,38.7,14.4,53,0c8.6-8.6,17.1-17.1,25.7-25.7
				c20.4-20.4,40.9-40.9,61.3-61.3c24.7-24.7,49.5-49.5,74.2-74.2c21.5-21.5,43-43,64.5-64.5c10.4-10.4,21-20.7,31.3-31.3
				c0.2-0.2,0.3-0.3,0.5-0.5c13.9-13.9,14.9-39.3,0-53c-15-13.7-38.2-14.8-53,0c-8.6,8.6-17.1,17.1-25.7,25.7
				c-20.4,20.4-40.9,40.9-61.3,61.3c-24.7,24.7-49.5,49.5-74.2,74.2c-21.5,21.5-43,43-64.5,64.5c-10.4,10.4-21.1,20.6-31.3,31.3
				c-0.2,0.2-0.3,0.3-0.5,0.5c17.7,0,35.4,0,53,0c-8.7-8.7-17.3-17.3-26-26c-20.7-20.7-41.3-41.3-62-62c-25-25-50-50-75-75
				c-21.7-21.7-43.4-43.4-65.1-65.1c-10.5-10.5-20.9-21.2-31.6-31.6c-0.2-0.2-0.3-0.3-0.5-0.5c-13.9-13.9-39.3-14.9-53,0
				C-3801.7,466.1-3802.7,489.3-3787.9,504.1L-3787.9,504.1z"/>
		</g>
	</g>
	<g>
		<g>
			<path d="M-3112.7,75c8.7-8.7,17.3-17.3,26-26c20.7-20.7,41.3-41.3,62-62c25-25,50-50,75-75c21.7-21.7,43.4-43.4,65.1-65.1
				c10.5-10.5,21.3-20.8,31.6-31.6c0.1-0.2,0.3-0.3,0.5-0.5c-17.7,0-35.4,0-53,0c8.6,8.6,17.1,17.1,25.7,25.7
				c20.4,20.4,40.9,40.9,61.3,61.3c24.7,24.7,49.5,49.5,74.2,74.2c21.5,21.5,43,43,64.5,64.5c10.4,10.4,20.7,21,31.3,31.3
				c0.2,0.2,0.3,0.3,0.5,0.5c13.9,13.9,39.3,14.9,53,0c13.7-15,14.8-38.2,0-53c-8.6-8.6-17.1-17.1-25.7-25.7
				c-20.4-20.4-40.9-40.9-61.3-61.3c-24.7-24.7-49.5-49.5-74.2-74.2c-21.5-21.5-43-43-64.5-64.5c-10.4-10.4-20.7-21-31.3-31.3
				c-0.2-0.2-0.3-0.3-0.5-0.5c-14.3-14.3-38.7-14.4-53,0c-8.7,8.7-17.3,17.3-26,26c-20.7,20.7-41.3,41.3-62,62c-25,25-50,50-75,75
				c-21.7,21.7-43.4,43.4-65.1,65.1c-10.5,10.5-21.2,20.9-31.6,31.6c-0.2,0.2-0.3,0.3-0.5,0.5c-13.9,13.9-14.9,39.3,0,53
				C-3150.7,88.7-3127.5,89.8-3112.7,75L-3112.7,75z"/>
		</g>
	</g>
	<g>
		<g>
			<path d="M-3112.7,427.3c8.7-8.7,17.3-17.3,26-26c20.7-20.7,41.3-41.3,62-62c25-25,50-50,75-75c21.7-21.7,43.4-43.4,65.1-65.1
				c10.5-10.5,21.3-20.8,31.6-31.6c0.1-0.2,0.3-0.3,0.5-0.5c-17.7,0-35.4,0-53,0c8.6,8.6,17.1,17.1,25.7,25.7
				c20.4,20.4,40.9,40.9,61.3,61.3c24.7,24.7,49.5,49.5,74.2,74.2c21.5,21.5,43,43,64.5,64.5c10.4,10.4,20.7,21,31.3,31.3
				c0.2,0.2,0.3,0.3,0.5,0.5c13.9,13.9,39.3,14.9,53,0c13.7-15,14.8-38.2,0-53c-8.6-8.6-17.1-17.1-25.7-25.7
				c-20.4-20.4-40.9-40.9-61.3-61.3c-24.7-24.7-49.5-49.5-74.2-74.2c-21.5-21.5-43-43-64.5-64.5c-10.4-10.4-20.7-21-31.3-31.3
				c-0.2-0.2-0.3-0.3-0.5-0.5c-14.3-14.3-38.7-14.4-53,0c-8.7,8.7-17.3,17.3-26,26c-20.7,20.7-41.3,41.3-62,62c-25,25-50,50-75,75
				c-21.7,21.7-43.4,43.4-65.1,65.1c-10.5,10.5-21.2,20.9-31.6,31.6c-0.2,0.2-0.3,0.3-0.5,0.5c-13.9,13.9-14.9,39.3,0,53
				C-3150.7,441-3127.5,442.1-3112.7,427.3L-3112.7,427.3z"/>
		</g>
	</g>
	<g>
		<g>
			<path d="M-3112.7,764.3c8.7-8.7,17.3-17.3,26-26c20.7-20.7,41.3-41.3,62-62c25-25,50-50,75-75c21.7-21.7,43.4-43.4,65.1-65.1
				c10.5-10.5,21.3-20.8,31.6-31.6c0.1-0.2,0.3-0.3,0.5-0.5c-17.7,0-35.4,0-53,0c8.6,8.6,17.1,17.1,25.7,25.7
				c20.4,20.4,40.9,40.9,61.3,61.3c24.7,24.7,49.5,49.5,74.2,74.2c21.5,21.5,43,43,64.5,64.5c10.4,10.4,20.7,21,31.3,31.3
				c0.2,0.2,0.3,0.3,0.5,0.5c13.9,13.9,39.3,14.9,53,0c13.7-15,14.8-38.2,0-53c-8.6-8.6-17.1-17.1-25.7-25.7
				c-20.4-20.4-40.9-40.9-61.3-61.3c-24.7-24.7-49.5-49.5-74.2-74.2c-21.5-21.5-43-43-64.5-64.5c-10.4-10.4-20.7-21-31.3-31.3
				c-0.2-0.2-0.3-0.3-0.5-0.5c-14.3-14.3-38.7-14.4-53,0c-8.7,8.7-17.3,17.3-26,26c-20.7,20.7-41.3,41.3-62,62c-25,25-50,50-75,75
				c-21.7,21.7-43.4,43.4-65.1,65.1c-10.5,10.5-21.2,20.9-31.6,31.6c-0.2,0.2-0.3,0.3-0.5,0.5c-13.9,13.9-14.9,39.3,0,53
				C-3150.7,778-3127.5,779.1-3112.7,764.3L-3112.7,764.3z"/>
		</g>
	</g>
	<g>
		<g>
			<path d="M-3766.7-22.7c8.7,8.7,17.3,17.3,26,26c20.7,20.7,41.3,41.3,62,62c25,25,50,50,75,75c21.7,21.7,43.4,43.4,65.1,65.1
				c10.5,10.5,20.6,21.5,31.6,31.6c0.2,0.1,0.3,0.3,0.5,0.5c2.9,2.9,7.7,2.9,10.6,0c8.6-8.6,17.1-17.1,25.7-25.7
				c20.4-20.4,40.9-40.9,61.3-61.3c24.7-24.7,49.5-49.5,74.2-74.2c21.5-21.5,43-43,64.5-64.5c10.4-10.4,21.3-20.5,31.3-31.3
				c0.1-0.2,0.3-0.3,0.5-0.5c6.8-6.8-3.8-17.4-10.6-10.6c-8.6,8.6-17.1,17.1-25.7,25.7c-20.4,20.4-40.9,40.9-61.3,61.3
				c-24.7,24.7-49.5,49.5-74.2,74.2c-21.5,21.5-43,43-64.5,64.5c-7.1,7.1-14.2,14.2-21.2,21.2c-3.3,3.3-7.2,6.4-10,10
				c-0.1,0.2-0.3,0.3-0.5,0.5c3.5,0,7.1,0,10.6,0c-8.7-8.7-17.3-17.3-26-26c-20.7-20.7-41.3-41.3-62-62c-25-25-50-50-75-75
				c-21.7-21.7-43.4-43.4-65.1-65.1c-10.5-10.5-20.6-21.5-31.6-31.6c-0.2-0.1-0.3-0.3-0.5-0.5C-3762.9-40.2-3773.5-29.6-3766.7-22.7
				L-3766.7-22.7z"/>
		</g>
	</g>
	<g>
		<g>
			<path d="M-3766.7,324.2c8.7,8.7,17.3,17.3,26,26c20.7,20.7,41.3,41.3,62,62c25,25,50,50,75,75c21.7,21.7,43.4,43.4,65.1,65.1
				c10.5,10.5,20.6,21.5,31.6,31.6c0.2,0.1,0.3,0.3,0.5,0.5c2.9,2.9,7.7,2.9,10.6,0c8.6-8.6,17.1-17.1,25.7-25.7
				c20.4-20.4,40.9-40.9,61.3-61.3c24.7-24.7,49.5-49.5,74.2-74.2c21.5-21.5,43-43,64.5-64.5c10.4-10.4,21.3-20.5,31.3-31.3
				c0.1-0.2,0.3-0.3,0.5-0.5c6.8-6.8-3.8-17.4-10.6-10.6c-8.6,8.6-17.1,17.1-25.7,25.7c-20.4,20.4-40.9,40.9-61.3,61.3
				c-24.7,24.7-49.5,49.5-74.2,74.2c-21.5,21.5-43,43-64.5,64.5c-7.1,7.1-14.2,14.2-21.2,21.2c-3.3,3.3-7.2,6.4-10,10
				c-0.1,0.2-0.3,0.3-0.5,0.5c3.5,0,7.1,0,10.6,0c-8.7-8.7-17.3-17.3-26-26c-20.7-20.7-41.3-41.3-62-62c-25-25-50-50-75-75
				c-21.7-21.7-43.4-43.4-65.1-65.1c-10.5-10.5-20.6-21.5-31.6-31.6c-0.2-0.1-0.3-0.3-0.5-0.5
				C-3762.9,306.8-3773.5,317.4-3766.7,324.2L-3766.7,324.2z"/>
		</g>
	</g>
	<g>
		<g>
			<path d="M-3133.9,237.4c8.7-8.7,17.3-17.3,26-26c20.7-20.7,41.3-41.3,62-62c25-25,50-50,75-75c21.7-21.7,43.4-43.4,65.1-65.1
				c7.1-7.1,14.2-14.2,21.3-21.3c3.3-3.3,7.4-6.5,10.3-10.3c0.1-0.2,0.3-0.3,0.5-0.5c-3.5,0-7.1,0-10.6,0
				c8.6,8.6,17.1,17.1,25.7,25.7c20.4,20.4,40.9,40.9,61.3,61.3c24.7,24.7,49.5,49.5,74.2,74.2c21.5,21.5,43,43,64.5,64.5
				c10.4,10.4,20.5,21.3,31.3,31.3c0.2,0.1,0.3,0.3,0.5,0.5c6.8,6.8,17.4-3.8,10.6-10.6c-8.6-8.6-17.1-17.1-25.7-25.7
				c-20.4-20.4-40.9-40.9-61.3-61.3c-24.7-24.7-49.5-49.5-74.2-74.2c-21.5-21.5-43-43-64.5-64.5c-10.4-10.4-20.5-21.3-31.3-31.3
				c-0.2-0.1-0.3-0.3-0.5-0.5c-2.9-2.9-7.7-2.9-10.6,0c-8.7,8.7-17.3,17.3-26,26c-20.7,20.7-41.3,41.3-62,62c-25,25-50,50-75,75
				c-21.7,21.7-43.4,43.4-65.1,65.1c-10.5,10.5-21.5,20.6-31.6,31.6c-0.1,0.2-0.3,0.3-0.5,0.5
				C-3151.3,233.6-3140.7,244.3-3133.9,237.4L-3133.9,237.4z"/>
		</g>
	</g>
	<g>
		<g>
			<path d="M-3133.9,584.3c8.7-8.7,17.3-17.3,26-26c20.7-20.7,41.3-41.3,62-62c25-25,50-50,75-75c21.7-21.7,43.4-43.4,65.1-65.1
				c7.1-7.1,14.2-14.2,21.3-21.3c3.3-3.3,7.4-6.5,10.3-10.3c0.1-0.2,0.3-0.3,0.5-0.5c-3.5,0-7.1,0-10.6,0
				c8.6,8.6,17.1,17.1,25.7,25.7c20.4,20.4,40.9,40.9,61.3,61.3c24.7,24.7,49.5,49.5,74.2,74.2c21.5,21.5,43,43,64.5,64.5
				c10.4,10.4,20.5,21.3,31.3,31.3c0.2,0.1,0.3,0.3,0.5,0.5c6.8,6.8,17.4-3.8,10.6-10.6c-8.6-8.6-17.1-17.1-25.7-25.7
				c-20.4-20.4-40.9-40.9-61.3-61.3c-24.7-24.7-49.5-49.5-74.2-74.2c-21.5-21.5-43-43-64.5-64.5c-10.4-10.4-20.5-21.3-31.3-31.3
				c-0.2-0.1-0.3-0.3-0.5-0.5c-2.9-2.9-7.7-2.9-10.6,0c-8.7,8.7-17.3,17.3-26,26c-20.7,20.7-41.3,41.3-62,62c-25,25-50,50-75,75
				c-21.7,21.7-43.4,43.4-65.1,65.1c-10.5,10.5-21.5,20.6-31.6,31.6c-0.1,0.2-0.3,0.3-0.5,0.5
				C-3151.3,580.6-3140.7,591.2-3133.9,584.3L-3133.9,584.3z"/>
		</g>
	</g>
</g>
<rect x="-2519.4" y="-211.7" class="st2" width="2392.9" height="1073"/>
<text transform="matrix(1 0 0 1 -2519.4309 153.3378)"><tspan x="0" y="0" class="st0" style="font-family:'Raleway-ExtraLight'; font-size:500px;">ELISE</tspan><tspan x="0" y="600" class="st0" style="font-family:'Raleway-ExtraLight'; font-size:500px;">WEILAND</tspan></text>
<circle class="st1" cx="-3119.2" cy="1564.2" r="659.4"/>
<g>
	<g>
		<g>
			<path d="M-3712.5,1116.1c8.7,8.7,17.3,17.3,26,26c20.7,20.7,41.3,41.3,62,62c25,25,50,50,75,75c21.7,21.7,43.4,43.4,65.1,65.1
				c10.5,10.5,20.9,21.2,31.6,31.6c0.2,0.2,0.3,0.3,0.5,0.5c14.3,14.3,38.7,14.4,53,0c8.6-8.6,17.1-17.1,25.7-25.7
				c20.4-20.4,40.9-40.9,61.3-61.3c24.7-24.7,49.5-49.5,74.2-74.2c21.5-21.5,43-43,64.5-64.5c10.4-10.4,21-20.7,31.3-31.3
				c0.2-0.2,0.3-0.3,0.5-0.5c13.9-13.9,14.9-39.3,0-53c-15-13.7-38.2-14.8-53,0c-8.6,8.6-17.1,17.1-25.7,25.7
				c-20.4,20.4-40.9,40.9-61.3,61.3c-24.7,24.7-49.5,49.5-74.2,74.2c-21.5,21.5-43,43-64.5,64.5c-10.4,10.4-21.1,20.6-31.3,31.3
				c-0.2,0.2-0.3,0.3-0.5,0.5c17.7,0,35.4,0,53,0c-8.7-8.7-17.3-17.3-26-26c-20.7-20.7-41.3-41.3-62-62c-25-25-50-50-75-75
				c-21.7-21.7-43.4-43.4-65.1-65.1c-10.5-10.5-20.9-21.2-31.6-31.6c-0.2-0.2-0.3-0.3-0.5-0.5c-13.9-13.9-39.3-14.9-53,0
				C-3726.2,1078-3727.3,1101.2-3712.5,1116.1L-3712.5,1116.1z"/>
		</g>
	</g>
	<g>
		<g>
			<path d="M-3712.5,1468.3c8.7,8.7,17.3,17.3,26,26c20.7,20.7,41.3,41.3,62,62c25,25,50,50,75,75c21.7,21.7,43.4,43.4,65.1,65.1
				c10.5,10.5,20.9,21.2,31.6,31.6c0.2,0.2,0.3,0.3,0.5,0.5c14.3,14.3,38.7,14.4,53,0c8.6-8.6,17.1-17.1,25.7-25.7
				c20.4-20.4,40.9-40.9,61.3-61.3c24.7-24.7,49.5-49.5,74.2-74.2c21.5-21.5,43-43,64.5-64.5c10.4-10.4,21-20.7,31.3-31.3
				c0.2-0.2,0.3-0.3,0.5-0.5c13.9-13.9,14.9-39.3,0-53c-15-13.7-38.2-14.8-53,0c-8.6,8.6-17.1,17.1-25.7,25.7
				c-20.4,20.4-40.9,40.9-61.3,61.3c-24.7,24.7-49.5,49.5-74.2,74.2c-21.5,21.5-43,43-64.5,64.5c-10.4,10.4-21.1,20.6-31.3,31.3
				c-0.2,0.2-0.3,0.3-0.5,0.5c17.7,0,35.4,0,53,0c-8.7-8.7-17.3-17.3-26-26c-20.7-20.7-41.3-41.3-62-62c-25-25-50-50-75-75
				c-21.7-21.7-43.4-43.4-65.1-65.1c-10.5-10.5-20.9-21.2-31.6-31.6c-0.2-0.2-0.3-0.3-0.5-0.5c-13.9-13.9-39.3-14.9-53,0
				C-3726.2,1430.2-3727.3,1453.5-3712.5,1468.3L-3712.5,1468.3z"/>
		</g>
	</g>
	<g>
		<g>
			<path d="M-3712.5,1805.3c8.7,8.7,17.3,17.3,26,26c20.7,20.7,41.3,41.3,62,62c25,25,50,50,75,75c21.7,21.7,43.4,43.4,65.1,65.1
				c10.5,10.5,20.9,21.2,31.6,31.6c0.2,0.2,0.3,0.3,0.5,0.5c14.3,14.3,38.7,14.4,53,0c8.6-8.6,17.1-17.1,25.7-25.7
				c20.4-20.4,40.9-40.9,61.3-61.3c24.7-24.7,49.5-49.5,74.2-74.2c21.5-21.5,43-43,64.5-64.5c10.4-10.4,21-20.7,31.3-31.3
				c0.2-0.2,0.3-0.3,0.5-0.5c13.9-13.9,14.9-39.3,0-53c-15-13.7-38.2-14.8-53,0c-8.6,8.6-17.1,17.1-25.7,25.7
				c-20.4,20.4-40.9,40.9-61.3,61.3c-24.7,24.7-49.5,49.5-74.2,74.2c-21.5,21.5-43,43-64.5,64.5c-10.4,10.4-21.1,20.6-31.3,31.3
				c-0.2,0.2-0.3,0.3-0.5,0.5c17.7,0,35.4,0,53,0c-8.7-8.7-17.3-17.3-26-26c-20.7-20.7-41.3-41.3-62-62c-25-25-50-50-75-75
				c-21.7-21.7-43.4-43.4-65.1-65.1c-10.5-10.5-20.9-21.2-31.6-31.6c-0.2-0.2-0.3-0.3-0.5-0.5c-13.9-13.9-39.3-14.9-53,0
				C-3726.2,1767.2-3727.3,1790.5-3712.5,1805.3L-3712.5,1805.3z"/>
		</g>
	</g>
	<g>
		<g>
			<path d="M-3037.2,1376.2c8.7-8.7,17.3-17.3,26-26c20.7-20.7,41.3-41.3,62-62c25-25,50-50,75-75c21.7-21.7,43.4-43.4,65.1-65.1
				c10.5-10.5,21.3-20.8,31.6-31.6c0.1-0.2,0.3-0.3,0.5-0.5c-17.7,0-35.4,0-53,0c8.6,8.6,17.1,17.1,25.7,25.7
				c20.4,20.4,40.9,40.9,61.3,61.3c24.7,24.7,49.5,49.5,74.2,74.2c21.5,21.5,43,43,64.5,64.5c10.4,10.4,20.7,21,31.3,31.3
				c0.2,0.2,0.3,0.3,0.5,0.5c13.9,13.9,39.3,14.9,53,0c13.7-15,14.8-38.2,0-53c-8.6-8.6-17.1-17.1-25.7-25.7
				c-20.4-20.4-40.9-40.9-61.3-61.3c-24.7-24.7-49.5-49.5-74.2-74.2c-21.5-21.5-43-43-64.5-64.5c-10.4-10.4-20.7-21-31.3-31.3
				c-0.2-0.2-0.3-0.3-0.5-0.5c-14.3-14.3-38.7-14.4-53,0c-8.7,8.7-17.3,17.3-26,26c-20.7,20.7-41.3,41.3-62,62c-25,25-50,50-75,75
				c-21.7,21.7-43.4,43.4-65.1,65.1c-10.5,10.5-21.2,20.9-31.6,31.6c-0.2,0.2-0.3,0.3-0.5,0.5c-13.9,13.9-14.9,39.3,0,53
				C-3075.3,1389.9-3052,1391-3037.2,1376.2L-3037.2,1376.2z"/>
		</g>
	</g>
	<g>
		<g>
			<path d="M-3037.2,1728.4c8.7-8.7,17.3-17.3,26-26c20.7-20.7,41.3-41.3,62-62c25-25,50-50,75-75c21.7-21.7,43.4-43.4,65.1-65.1
				c10.5-10.5,21.3-20.8,31.6-31.6c0.1-0.2,0.3-0.3,0.5-0.5c-17.7,0-35.4,0-53,0c8.6,8.6,17.1,17.1,25.7,25.7
				c20.4,20.4,40.9,40.9,61.3,61.3c24.7,24.7,49.5,49.5,74.2,74.2c21.5,21.5,43,43,64.5,64.5c10.4,10.4,20.7,21,31.3,31.3
				c0.2,0.2,0.3,0.3,0.5,0.5c13.9,13.9,39.3,14.9,53,0c13.7-15,14.8-38.2,0-53c-8.6-8.6-17.1-17.1-25.7-25.7
				c-20.4-20.4-40.9-40.9-61.3-61.3c-24.7-24.7-49.5-49.5-74.2-74.2c-21.5-21.5-43-43-64.5-64.5c-10.4-10.4-20.7-21-31.3-31.3
				c-0.2-0.2-0.3-0.3-0.5-0.5c-14.3-14.3-38.7-14.4-53,0c-8.7,8.7-17.3,17.3-26,26c-20.7,20.7-41.3,41.3-62,62c-25,25-50,50-75,75
				c-21.7,21.7-43.4,43.4-65.1,65.1c-10.5,10.5-21.2,20.9-31.6,31.6c-0.2,0.2-0.3,0.3-0.5,0.5c-13.9,13.9-14.9,39.3,0,53
				C-3075.3,1742.2-3052,1743.3-3037.2,1728.4L-3037.2,1728.4z"/>
		</g>
	</g>
	<g>
		<g>
			<path d="M-3037.2,2065.5c8.7-8.7,17.3-17.3,26-26c20.7-20.7,41.3-41.3,62-62c25-25,50-50,75-75c21.7-21.7,43.4-43.4,65.1-65.1
				c10.5-10.5,21.3-20.8,31.6-31.6c0.1-0.2,0.3-0.3,0.5-0.5c-17.7,0-35.4,0-53,0c8.6,8.6,17.1,17.1,25.7,25.7
				c20.4,20.4,40.9,40.9,61.3,61.3c24.7,24.7,49.5,49.5,74.2,74.2c21.5,21.5,43,43,64.5,64.5c10.4,10.4,20.7,21,31.3,31.3
				c0.2,0.2,0.3,0.3,0.5,0.5c13.9,13.9,39.3,14.9,53,0c13.7-15,14.8-38.2,0-53c-8.6-8.6-17.1-17.1-25.7-25.7
				c-20.4-20.4-40.9-40.9-61.3-61.3c-24.7-24.7-49.5-49.5-74.2-74.2c-21.5-21.5-43-43-64.5-64.5c-10.4-10.4-20.7-21-31.3-31.3
				c-0.2-0.2-0.3-0.3-0.5-0.5c-14.3-14.3-38.7-14.4-53,0c-8.7,8.7-17.3,17.3-26,26c-20.7,20.7-41.3,41.3-62,62c-25,25-50,50-75,75
				c-21.7,21.7-43.4,43.4-65.1,65.1c-10.5,10.5-21.2,20.9-31.6,31.6c-0.2,0.2-0.3,0.3-0.5,0.5c-13.9,13.9-14.9,39.3,0,53
				C-3075.3,2079.2-3052,2080.3-3037.2,2065.5L-3037.2,2065.5z"/>
		</g>
	</g>
	<g>
		<g>
			<path d="M-3691.3,1278.5c8.7,8.7,17.3,17.3,26,26c20.7,20.7,41.3,41.3,62,62c25,25,50,50,75,75c21.7,21.7,43.4,43.4,65.1,65.1
				c10.5,10.5,20.6,21.5,31.6,31.6c0.2,0.1,0.3,0.3,0.5,0.5c2.9,2.9,7.7,2.9,10.6,0c8.6-8.6,17.1-17.1,25.7-25.7
				c20.4-20.4,40.9-40.9,61.3-61.3c24.7-24.7,49.5-49.5,74.2-74.2c21.5-21.5,43-43,64.5-64.5c10.4-10.4,21.3-20.5,31.3-31.3
				c0.1-0.2,0.3-0.3,0.5-0.5c6.8-6.8-3.8-17.4-10.6-10.6c-8.6,8.6-17.1,17.1-25.7,25.7c-20.4,20.4-40.9,40.9-61.3,61.3
				c-24.7,24.7-49.5,49.5-74.2,74.2c-21.5,21.5-43,43-64.5,64.5c-7.1,7.1-14.2,14.2-21.2,21.2c-3.3,3.3-7.2,6.4-10,10
				c-0.1,0.2-0.3,0.3-0.5,0.5c3.5,0,7.1,0,10.6,0c-8.7-8.7-17.3-17.3-26-26c-20.7-20.7-41.3-41.3-62-62c-25-25-50-50-75-75
				c-21.7-21.7-43.4-43.4-65.1-65.1c-10.5-10.5-20.6-21.5-31.6-31.6c-0.2-0.1-0.3-0.3-0.5-0.5
				C-3687.5,1261-3698.1,1271.6-3691.3,1278.5L-3691.3,1278.5z"/>
		</g>
	</g>
	<g>
		<g>
			<path d="M-3691.3,1625.4c8.7,8.7,17.3,17.3,26,26c20.7,20.7,41.3,41.3,62,62c25,25,50,50,75,75c21.7,21.7,43.4,43.4,65.1,65.1
				c10.5,10.5,20.6,21.5,31.6,31.6c0.2,0.1,0.3,0.3,0.5,0.5c2.9,2.9,7.7,2.9,10.6,0c8.6-8.6,17.1-17.1,25.7-25.7
				c20.4-20.4,40.9-40.9,61.3-61.3c24.7-24.7,49.5-49.5,74.2-74.2c21.5-21.5,43-43,64.5-64.5c10.4-10.4,21.3-20.5,31.3-31.3
				c0.1-0.2,0.3-0.3,0.5-0.5c6.8-6.8-3.8-17.4-10.6-10.6c-8.6,8.6-17.1,17.1-25.7,25.7c-20.4,20.4-40.9,40.9-61.3,61.3
				c-24.7,24.7-49.5,49.5-74.2,74.2c-21.5,21.5-43,43-64.5,64.5c-7.1,7.1-14.2,14.2-21.2,21.2c-3.3,3.3-7.2,6.4-10,10
				c-0.1,0.2-0.3,0.3-0.5,0.5c3.5,0,7.1,0,10.6,0c-8.7-8.7-17.3-17.3-26-26c-20.7-20.7-41.3-41.3-62-62c-25-25-50-50-75-75
				c-21.7-21.7-43.4-43.4-65.1-65.1c-10.5-10.5-20.6-21.5-31.6-31.6c-0.2-0.1-0.3-0.3-0.5-0.5
				C-3687.5,1607.9-3698.1,1618.5-3691.3,1625.4L-3691.3,1625.4z"/>
		</g>
	</g>
	<g>
		<g>
			<path d="M-3058.4,1538.6c8.7-8.7,17.3-17.3,26-26c20.7-20.7,41.3-41.3,62-62c25-25,50-50,75-75c21.7-21.7,43.4-43.4,65.1-65.1
				c7.1-7.1,14.2-14.2,21.3-21.3c3.3-3.3,7.4-6.5,10.3-10.3c0.1-0.2,0.3-0.3,0.5-0.5c-3.5,0-7.1,0-10.6,0
				c8.6,8.6,17.1,17.1,25.7,25.7c20.4,20.4,40.9,40.9,61.3,61.3c24.7,24.7,49.5,49.5,74.2,74.2c21.5,21.5,43,43,64.5,64.5
				c10.4,10.4,20.5,21.3,31.3,31.3c0.2,0.1,0.3,0.3,0.5,0.5c6.8,6.8,17.4-3.8,10.6-10.6c-8.6-8.6-17.1-17.1-25.7-25.7
				c-20.4-20.4-40.9-40.9-61.3-61.3c-24.7-24.7-49.5-49.5-74.2-74.2c-21.5-21.5-43-43-64.5-64.5c-10.4-10.4-20.5-21.3-31.3-31.3
				c-0.2-0.1-0.3-0.3-0.5-0.5c-2.9-2.9-7.7-2.9-10.6,0c-8.7,8.7-17.3,17.3-26,26c-20.7,20.7-41.3,41.3-62,62c-25,25-50,50-75,75
				c-21.7,21.7-43.4,43.4-65.1,65.1c-10.5,10.5-21.5,20.6-31.6,31.6c-0.1,0.2-0.3,0.3-0.5,0.5
				C-3075.9,1534.8-3065.3,1545.4-3058.4,1538.6L-3058.4,1538.6z"/>
		</g>
	</g>
	<g>
		<g>
			<path d="M-3058.4,1885.5c8.7-8.7,17.3-17.3,26-26c20.7-20.7,41.3-41.3,62-62c25-25,50-50,75-75c21.7-21.7,43.4-43.4,65.1-65.1
				c7.1-7.1,14.2-14.2,21.3-21.3c3.3-3.3,7.4-6.5,10.3-10.3c0.1-0.2,0.3-0.3,0.5-0.5c-3.5,0-7.1,0-10.6,0
				c8.6,8.6,17.1,17.1,25.7,25.7c20.4,20.4,40.9,40.9,61.3,61.3c24.7,24.7,49.5,49.5,74.2,74.2c21.5,21.5,43,43,64.5,64.5
				c10.4,10.4,20.5,21.3,31.3,31.3c0.2,0.1,0.3,0.3,0.5,0.5c6.8,6.8,17.4-3.8,10.6-10.6c-8.6-8.6-17.1-17.1-25.7-25.7
				c-20.4-20.4-40.9-40.9-61.3-61.3c-24.7-24.7-49.5-49.5-74.2-74.2c-21.5-21.5-43-43-64.5-64.5c-10.4-10.4-20.5-21.3-31.3-31.3
				c-0.2-0.1-0.3-0.3-0.5-0.5c-2.9-2.9-7.7-2.9-10.6,0c-8.7,8.7-17.3,17.3-26,26c-20.7,20.7-41.3,41.3-62,62c-25,25-50,50-75,75
				c-21.7,21.7-43.4,43.4-65.1,65.1c-10.5,10.5-21.5,20.6-31.6,31.6c-0.1,0.2-0.3,0.3-0.5,0.5
				C-3075.9,1881.8-3065.3,1892.4-3058.4,1885.5L-3058.4,1885.5z"/>
		</g>
	</g>
</g>
<path class="st0" d="M2262,602.3c90.4,54.5,312.5,52.6,566.1-148.9c0,0,598.3-500,636.5-73.1c0,0-39.8-80.8-93.4-66.4
	c-53.6,14.5-60,66.4-60,66.4s-63.9,244.1,302.4,346.3H2229.3"/>
<path class="st0" d="M3382.2,602.3c90.4,54.5,312.5,52.6,566.1-148.9c0,0,598.3-500,636.5-73.1c0,0-39.8-80.8-93.4-66.4
	c-53.6,14.5-60,66.4-60,66.4s-63.9,244.1,302.4,346.3H3382.2"/>
<path class="st0" d="M3.9,727V585.4C94.3,640,316.5,638,570,436.5c0,0,598.3-500,636.5-73.1c0,0-39.8-80.8-93.4-66.4
	c-53.6,14.5-60,66.4-60,66.4s-30.2,115.4,70,220.7c45.5,47.9,118,93.7,232.5,125.6V727"/>
<path class="st0" d="M1123.9,727h1138.1h213.6v-17.3c-99.8-27.9-167.7-66.3-213.6-107.4c-122.6-109.8-88.8-238.9-88.8-238.9
	s6.4-51.9,59.9-66.4c53.6-14.5,93.4,66.4,93.4,66.4c-38.3-426.9-636.5,73.1-636.5,73.1C1436.4,638,1214.3,640,1123.9,585.4"/>
<path class="st0" d="M4486.5,727V585.4c90.4,54.5,312.5,52.6,566.1-148.9c0,0,598.3-500,636.5-73.1c0,0-39.8-80.8-93.4-66.4
	c-53.6,14.5-60,66.4-60,66.4s-30.2,115.4,70,220.7c45.5,47.9,118,93.7,232.5,125.6V727"/>
<path id="SVGID_x5F_1_x5F_" class="st2" d="M2258,578.8c90.4,54.5,312.5,52.6,566.1-148.9c0,0,598.3-500,636.5-73.1
	c0,0-39.8-80.8-93.4-66.4s-59.9,66.4-59.9,66.4s-63.9,244.1,302.4,346.3H2225.4"/>
<text><textPath  xlink:href="#SVGID_x5F_1_x5F_" startOffset="14.445%">
<tspan  style="font-family:'Raleway-ExtraLight'; font-size:200px;">YOURS</tspan></textPath>
</text>
<path id="SVGID_x5F_2_x5F_" class="st2" d="M3378.3,578.8c90.4,54.5,312.5,52.6,566.1-148.9c0,0,598.3-500,636.5-73.1
	c0,0-39.8-80.8-93.4-66.4c-53.6,14.5-60,66.4-60,66.4S4363.6,600.8,4730,703H3378.3"/>
<text><textPath  xlink:href="#SVGID_x5F_2_x5F_" startOffset="14.7461%">
<tspan  style="font-family:'Raleway-ExtraLight'; font-size:200px;">TRULY</tspan></textPath>
</text>
<path id="SVGID_x5F_3_x5F_" class="st2" d="M0,703.5V561.9c90.4,54.5,312.5,52.6,566.1-148.9c0,0,598.3-500,636.5-73.1
	c0,0-39.8-80.8-93.4-66.4s-60,66.4-60,66.4s-30.2,115.4,70,220.7c45.5,47.9,118,93.7,232.5,125.6v17.3"/>
<text><textPath  xlink:href="#SVGID_x5F_3_x5F_" startOffset="17.7917%">
<tspan  style="font-family:'Raleway-ExtraLight'; font-size:200px;">UPDATES</tspan></textPath>
</text>
<path id="SVGID_x5F_4_x5F_" class="st2" d="M1120,703.5H2258h213.6v-17.3c-99.8-27.9-167.7-66.3-213.6-107.4
	c-122.6-109.8-88.8-238.9-88.8-238.9s6.4-51.9,60-66.4c53.6-14.5,93.4,66.4,93.4,66.4C2284.3-87,1686,413,1686,413
	c-253.5,201.5-475.6,203.4-566.1,148.9"/>
<text><textPath  xlink:href="#SVGID_x5F_4_x5F_" startOffset="78.0117%">
<tspan  style="font-family:'Raleway-ExtraLight'; font-size:200px;">FROM</tspan></textPath>
</text>
</svg>
