<?xml version="1.0" encoding="utf-8"?>
<!-- Generator: Adobe Illustrator 19.1.0, SVG Export Plug-In . SVG Version: 6.00 Build 0)  -->
<svg version="1.1" id="Layer_1" xmlns="http://www.w3.org/2000/svg" xmlns:xlink="http://www.w3.org/1999/xlink" x="0px" y="0px"
	 viewBox="0 0 16.8 16.8" style="enable-background:new 0 0 16.8 16.8;" xml:space="preserve">
<style type="text/css">
	.st0{fill:#043149;}
	.st1{fill:none;stroke:#043149;stroke-width:10;stroke-miterlimit:10;}
	.st2{fill:#FFEFC1;}
	.st3{clip-path:url(#SVGID_2_);fill:#E57777;}
	.st4{fill:none;stroke:#83949B;stroke-width:6;stroke-miterlimit:10;}
	.st5{fill:#D7EFF2;}
	.st6{fill:#F7D772;}
	.st7{clip-path:url(#SVGID_4_);fill:#E57777;}
</style>
<circle class="st1" cx="8.4" cy="8.4" r="250"/>
<g>
	<g>
		<path d="M-208.8-6.8c28.8,28.8,57.7,57.7,86.5,86.5c4,4,8.1,8.1,12.1,12.1c2.9,2.9,7.7,2.9,10.6,0c28.5-28.5,56.9-56.9,85.4-85.4
			C-10.1,2.3-6-1.7-2-5.8c6.8-6.8-3.8-17.4-10.6-10.6C-41,12.1-69.5,40.5-98,69c-4.1,4.1-8.1,8.1-12.2,12.2c3.5,0,7.1,0,10.6,0
			c-28.8-28.8-57.7-57.7-86.5-86.5c-4-4-8.1-8.1-12.1-12.1C-205-24.3-215.6-13.7-208.8-6.8L-208.8-6.8z"/>
	</g>
</g>
<g>
	<g>
		<path d="M-208.8-70.8c28.8,28.8,57.7,57.7,86.5,86.5c4,4,8.1,8.1,12.1,12.1c2.9,2.9,7.7,2.9,10.6,0c28.5-28.5,56.9-56.9,85.4-85.4
			C-10.1-61.6-6-65.7-2-69.7c6.8-6.8-3.8-17.4-10.6-10.6C-41-51.9-69.5-23.4-98,5c-4.1,4.1-8.1,8.1-12.2,12.2c3.5,0,7.1,0,10.6,0
			c-28.8-28.8-57.7-57.7-86.5-86.5c-4-4-8.1-8.1-12.1-12.1C-205-88.2-215.6-77.6-208.8-70.8L-208.8-70.8z"/>
	</g>
</g>
</svg>
