<?xml version="1.0" encoding="utf-8"?>
<!-- Generator: Adobe Illustrator 19.1.0, SVG Export Plug-In . SVG Version: 6.00 Build 0)  -->
<svg version="1.1" id="Layer_1" xmlns="http://www.w3.org/2000/svg" xmlns:xlink="http://www.w3.org/1999/xlink" x="0px" y="0px"
	 viewBox="0 0 4733.9 727" style="enable-background:new 0 0 4733.9 727;" xml:space="preserve">
<style type="text/css">
	.st0{fill:#043149;}
	.st1{fill:none;stroke:#043149;stroke-width:10;stroke-miterlimit:10;}
	.st2{fill:none;}
	.st3{fill:#FFEFC1;}
	.st4{clip-path:url(#SVGID_7_);fill:#E57777;}
	.st5{fill:none;stroke:#83949B;stroke-width:6;stroke-miterlimit:10;}
	.st6{fill:#D7EFF2;}
	.st7{fill:#F7D772;}
	.st8{clip-path:url(#SVGID_8_);fill:#E57777;}
</style>
<path class="st0" d="M2262,602.3c90.4,54.5,312.5,52.6,566.1-148.9c0,0,598.3-500,636.5-73.1c0,0-39.8-80.8-93.4-66.4
	s-59.9,66.4-59.9,66.4s-63.9,244.1,302.4,346.3H2229.3"/>
<path class="st0" d="M3382.2,602.3c90.4,54.5,312.5,52.6,566.1-148.9c0,0,598.3-500,636.5-73.1c0,0-39.8-80.8-93.4-66.4
	s-60,66.4-60,66.4s-63.9,244.1,302.4,346.3H3382.2"/>
<path class="st0" d="M3.9,727V585.4C94.3,640,316.5,638,570,436.5c0,0,598.3-500,636.5-73.1c0,0-39.8-80.8-93.4-66.4
	c-53.6,14.5-59.9,66.4-59.9,66.4s-30.2,115.4,70,220.7c45.5,47.9,118,93.7,232.5,125.6V727"/>
<path class="st0" d="M1123.9,727h1138.1h213.6v-17.3c-99.8-27.9-167.7-66.3-213.6-107.4c-122.6-109.8-88.8-238.9-88.8-238.9
	s6.4-51.9,59.9-66.4s93.4,66.4,93.4,66.4c-38.3-426.9-636.5,73.1-636.5,73.1C1436.4,638,1214.3,640,1123.9,585.4"/>
<path class="st0" d="M4486.5,727V585.4c90.4,54.5,312.5,52.6,566.1-148.9c0,0,598.3-500,636.5-73.1c0,0-39.8-80.8-93.4-66.4
	c-53.6,14.5-60,66.4-60,66.4s-30.2,115.4,70,220.7c45.5,47.9,118,93.7,232.5,125.6V727"/>
<path id="SVGID_x5F_2_x5F_" class="st2" d="M2258,578.8c90.4,54.5,312.5,52.6,566.1-148.9c0,0,598.3-500,636.5-73.1
	c0,0-39.8-80.8-93.4-66.4c-53.6,14.5-59.9,66.4-59.9,66.4s-63.9,244.1,302.4,346.3H2225.4"/>
<text><textPath  xlink:href="#SVGID_x5F_2_x5F_" startOffset="14.445%">
<tspan  style="font-family:'Raleway-ExtraLight'; font-size:200px;">YOURS</tspan></textPath>
</text>
<path id="SVGID_x5F_4_x5F__1_" class="st2" d="M3378.3,578.8c90.4,54.5,312.5,52.6,566.1-148.9c0,0,598.3-500,636.5-73.1
	c0,0-39.8-80.8-93.4-66.4c-53.6,14.5-60,66.4-60,66.4S4363.6,600.8,4730,703H3378.3"/>
<text><textPath  xlink:href="#SVGID_x5F_4_x5F__1_" startOffset="14.7462%">
<tspan  style="font-family:'Raleway-ExtraLight'; font-size:200px;">TRULY</tspan></textPath>
</text>
<path id="SVGID_x5F_5_x5F_" class="st2" d="M0,703.5V561.9c90.4,54.5,312.5,52.6,566.1-148.9c0,0,598.3-500,636.5-73.1
	c0,0-39.8-80.8-93.4-66.4c-53.6,14.5-60,66.4-60,66.4s-30.2,115.4,70,220.7c45.5,47.9,118,93.7,232.5,125.6v17.3"/>
<text><textPath  xlink:href="#SVGID_x5F_5_x5F_" startOffset="17.7917%">
<tspan  style="font-family:'Raleway-ExtraLight'; font-size:200px;">UPDATES</tspan></textPath>
</text>
<path id="SVGID_x5F_6_x5F__1_" class="st2" d="M1120,703.5H2258h213.6v-17.3c-99.8-27.9-167.7-66.3-213.6-107.4
	c-122.6-109.8-88.8-238.9-88.8-238.9s6.4-51.9,60-66.4s93.4,66.4,93.4,66.4C2284.3-87,1686,413,1686,413
	c-253.5,201.5-475.6,203.4-566.1,148.9"/>
<text><textPath  xlink:href="#SVGID_x5F_6_x5F__1_" startOffset="78.0118%">
<tspan  style="font-family:'Raleway-ExtraLight'; font-size:200px;">FROM</tspan></textPath>
</text>
</svg>
