<?xml version="1.0" encoding="utf-8"?>
<!-- Generator: Adobe Illustrator 19.1.0, SVG Export Plug-In . SVG Version: 6.00 Build 0)  -->
<svg version="1.1" id="Layer_1" xmlns="http://www.w3.org/2000/svg" xmlns:xlink="http://www.w3.org/1999/xlink" x="0px" y="0px"
	 viewBox="0 0 510 510" style="enable-background:new 0 0 510 510;" xml:space="preserve">
<style type="text/css">
	.st0{fill:#043149;}
	.st1{fill:none;stroke:#043149;stroke-width:10;stroke-miterlimit:10;}
	.st2{fill:#FFEFC1;}
	.st3{clip-path:url(#SVGID_2_);fill:#E57777;}
	.st4{fill:none;stroke:#83949B;stroke-width:6;stroke-miterlimit:10;}
	.st5{fill:#D7EFF2;}
	.st6{fill:#F7D772;}
	.st7{clip-path:url(#SVGID_4_);fill:#E57777;}
</style>
<circle class="st1" cx="255" cy="255" r="250"/>
<g>
	<g>
		<path d="M37.8,106.2c28.8,28.8,57.7,57.7,86.5,86.5c4,4,8.1,8.1,12.1,12.1c2.9,2.9,7.7,2.9,10.6,0c28.5-28.5,56.9-56.9,85.4-85.4
			c4.1-4.1,8.1-8.1,12.2-12.2c6.8-6.8-3.8-17.4-10.6-10.6c-28.5,28.5-56.9,56.9-85.4,85.4c-4.1,4.1-8.1,8.1-12.2,12.2
			c3.5,0,7.1,0,10.6,0c-28.8-28.8-57.7-57.7-86.5-86.5c-4-4-8.1-8.1-12.1-12.1C41.6,88.8,31,99.4,37.8,106.2L37.8,106.2z"/>
	</g>
</g>
<g>
	<g>
		<path d="M37.8,239.8c28.8,28.8,57.7,57.7,86.5,86.5c4,4,8.1,8.1,12.1,12.1c2.9,2.9,7.7,2.9,10.6,0c28.5-28.5,56.9-56.9,85.4-85.4
			c4.1-4.1,8.1-8.1,12.2-12.2c6.8-6.8-3.8-17.4-10.6-10.6c-28.5,28.5-56.9,56.9-85.4,85.4c-4.1,4.1-8.1,8.1-12.2,12.2
			c3.5,0,7.1,0,10.6,0c-28.8-28.8-57.7-57.7-86.5-86.5c-4-4-8.1-8.1-12.1-12.1C41.6,222.3,31,233,37.8,239.8L37.8,239.8z"/>
	</g>
</g>
<g>
	<g>
		<path d="M284.3,204.9c28.8-28.8,57.7-57.7,86.5-86.5c4-4,8.1-8.1,12.1-12.1c-3.5,0-7.1,0-10.6,0c28.5,28.5,56.9,56.9,85.4,85.4
			c4.1,4.1,8.1,8.1,12.2,12.2c6.8,6.8,17.4-3.8,10.6-10.6c-28.5-28.5-56.9-56.9-85.4-85.4c-4.1-4.1-8.1-8.1-12.2-12.2
			c-2.9-2.9-7.7-2.9-10.6,0c-28.8,28.8-57.7,57.7-86.5,86.5c-4,4-8.1,8.1-12.1,12.1C266.9,201.1,277.5,211.7,284.3,204.9
			L284.3,204.9z"/>
	</g>
</g>
<g>
	<g>
		<path d="M284.3,338.4c28.8-28.8,57.7-57.7,86.5-86.5c4-4,8.1-8.1,12.1-12.1c-3.5,0-7.1,0-10.6,0c28.5,28.5,56.9,56.9,85.4,85.4
			c4.1,4.1,8.1,8.1,12.2,12.2c6.8,6.8,17.4-3.8,10.6-10.6c-28.5-28.5-56.9-56.9-85.4-85.4c-4.1-4.1-8.1-8.1-12.2-12.2
			c-2.9-2.9-7.7-2.9-10.6,0c-28.8,28.8-57.7,57.7-86.5,86.5c-4,4-8.1,8.1-12.1,12.1C266.9,334.6,277.5,345.3,284.3,338.4
			L284.3,338.4z"/>
	</g>
</g>
<g>
	<g>
		<path d="M37.8,175.9c28.8,28.8,57.7,57.7,86.5,86.5c4,4,8.1,8.1,12.1,12.1c2.9,2.9,7.7,2.9,10.6,0c28.5-28.5,56.9-56.9,85.4-85.4
			c4.1-4.1,8.1-8.1,12.2-12.2c6.8-6.8-3.8-17.4-10.6-10.6c-28.5,28.5-56.9,56.9-85.4,85.4c-4.1,4.1-8.1,8.1-12.2,12.2
			c3.5,0,7.1,0,10.6,0c-28.8-28.8-57.7-57.7-86.5-86.5c-4-4-8.1-8.1-12.1-12.1C41.6,158.4,31,169,37.8,175.9L37.8,175.9z"/>
	</g>
</g>
<g>
	<g>
		<path d="M37.8,307.4c28.8,28.8,57.7,57.7,86.5,86.5c4,4,8.1,8.1,12.1,12.1c2.9,2.9,7.7,2.9,10.6,0c28.5-28.5,56.9-56.9,85.4-85.4
			c4.1-4.1,8.1-8.1,12.2-12.2c6.8-6.8-3.8-17.4-10.6-10.6c-28.5,28.5-56.9,56.9-85.4,85.4c-4.1,4.1-8.1,8.1-12.2,12.2
			c3.5,0,7.1,0,10.6,0c-28.8-28.8-57.7-57.7-86.5-86.5c-4-4-8.1-8.1-12.1-12.1C41.6,289.9,31,300.6,37.8,307.4L37.8,307.4z"/>
	</g>
</g>
<g>
	<g>
		<path d="M284.3,274.5c28.8-28.8,57.7-57.7,86.5-86.5c4-4,8.1-8.1,12.1-12.1c-3.5,0-7.1,0-10.6,0c28.5,28.5,56.9,56.9,85.4,85.4
			c4.1,4.1,8.1,8.1,12.2,12.2c6.8,6.8,17.4-3.8,10.6-10.6c-28.5-28.5-56.9-56.9-85.4-85.4c-4.1-4.1-8.1-8.1-12.2-12.2
			c-2.9-2.9-7.7-2.9-10.6,0c-28.8,28.8-57.7,57.7-86.5,86.5c-4,4-8.1,8.1-12.1,12.1C266.9,270.7,277.5,281.3,284.3,274.5
			L284.3,274.5z"/>
	</g>
</g>
<g>
	<g>
		<path d="M284.3,406c28.8-28.8,57.7-57.7,86.5-86.5c4-4,8.1-8.1,12.1-12.1c-3.5,0-7.1,0-10.6,0c28.5,28.5,56.9,56.9,85.4,85.4
			c4.1,4.1,8.1,8.1,12.2,12.2c6.8,6.8,17.4-3.8,10.6-10.6c-28.5-28.5-56.9-56.9-85.4-85.4c-4.1-4.1-8.1-8.1-12.2-12.2
			c-2.9-2.9-7.7-2.9-10.6,0c-28.8,28.8-57.7,57.7-86.5,86.5c-4,4-8.1,8.1-12.1,12.1C266.9,402.2,277.5,412.9,284.3,406L284.3,406z"
			/>
	</g>
</g>
</svg>
